<?xml version="1.0" standalone="no"?>
<!DOCTYPE svg PUBLIC "-//W3C//DTD SVG 20010904//EN"
 "http://www.w3.org/TR/2001/REC-SVG-20010904/DTD/svg10.dtd">
<svg version="1.0" xmlns="http://www.w3.org/2000/svg"
 width="256.000000pt" height="256.000000pt" viewBox="0 0 256.000000 256.000000"
 preserveAspectRatio="xMidYMid meet">

<g transform="translate(0.000000,256.000000) scale(0.100000,-0.100000)"
fill="#000000" stroke="none">
<path d="M1145 2524 c-236 -36 -413 -108 -587 -239 -571 -429 -627 -1277 -119
-1786 147 -146 351 -264 548 -315 132 -35 355 -44 492 -20 503 88 901 493 977
996 93 619 -304 1201 -916 1341 -83 19 -327 33 -395 23z m305 -38 c379 -58
698 -290 869 -632 36 -74 92 -230 90 -257 0 -7 -13 27 -29 75 -59 176 -142
311 -280 449 -390 395 -987 460 -1452 157 -217 -142 -386 -360 -467 -605 -17
-48 -30 -83 -30 -76 -2 27 54 183 90 257 225 452 713 706 1209 632z m35 -371
c278 -76 495 -297 571 -580 15 -55 19 -103 18 -225 -1 -145 -3 -161 -31 -247
-31 -95 -78 -187 -92 -181 -18 7 -950 1132 -945 1140 4 5 -4 20 -15 32 l-22
23 38 16 c21 8 63 20 93 26 30 6 64 13 75 15 41 10 252 -4 310 -19z m-371
-921 c475 -570 483 -582 464 -599 -28 -24 -112 -51 -203 -66 -218 -35 -465 38
-633 187 -107 94 -201 245 -237 379 -23 86 -31 267 -15 362 20 124 104 330
130 321 5 -2 227 -265 494 -584z m-967 354 c-3 -7 -5 -2 -5 12 0 14 2 19 5 13
2 -7 2 -19 0 -25z m2270 0 c-3 -7 -5 -2 -5 12 0 14 2 19 5 13 2 -7 2 -19 0
-25z m-2280 -50 c-3 -8 -6 -5 -6 6 -1 11 2 17 5 13 3 -3 4 -12 1 -19z m2290 0
c-3 -8 -6 -5 -6 6 -1 11 2 17 5 13 3 -3 4 -12 1 -19z"/>
</g>
</svg>
