<?xml version="1.0" standalone="no"?>
<!DOCTYPE svg PUBLIC "-//W3C//DTD SVG 20010904//EN"
 "http://www.w3.org/TR/2001/REC-SVG-20010904/DTD/svg10.dtd">
<svg version="1.0" xmlns="http://www.w3.org/2000/svg"
 width="256.000000pt" height="256.000000pt" viewBox="0 0 256.000000 256.000000"
 preserveAspectRatio="xMidYMid meet">

<g transform="translate(0.000000,256.000000) scale(0.100000,-0.100000)"
fill="#000000" stroke="none">
<path d="M1068 2515 c-241 -39 -474 -160 -648 -334 -474 -478 -462 -1239 26
-1700 250 -235 578 -350 917 -320 454 39 852 343 1007 768 57 156 65 208 64
421 0 178 -2 203 -26 292 -119 439 -464 767 -911 864 -101 22 -321 27 -429 9z
m322 -46 c191 -23 344 -79 499 -183 162 -107 300 -263 385 -434 36 -72 83
-216 90 -277 5 -44 3 -41 -17 30 -55 184 -142 337 -268 470 -98 103 -183 165
-314 230 -455 226 -974 135 -1326 -231 -144 -150 -237 -322 -284 -529 -14 -57
-14 -57 -9 -11 3 26 14 82 25 124 138 526 670 880 1219 811z m-442 -583 c15
-8 92 -80 172 -160 l145 -146 150 149 c157 155 177 171 220 171 37 0 62 -15
123 -74 82 -78 99 -125 68 -184 -8 -15 -80 -92 -160 -172 l-146 -145 149 -150
c82 -82 154 -160 160 -172 27 -54 8 -103 -71 -179 -61 -59 -86 -74 -123 -74
-43 0 -63 16 -220 171 l-150 149 -145 -146 c-80 -80 -157 -152 -172 -160 -59
-31 -106 -14 -184 68 -59 61 -74 86 -74 123 0 43 16 63 171 220 l149 150 -146
145 c-80 80 -152 157 -160 172 -18 34 -18 72 0 106 16 30 110 123 141 140 28
16 71 15 103 -2z m1429 -403 c-3 -10 -5 -4 -5 12 0 17 2 24 5 18 2 -7 2 -21 0
-30z"/>
</g>
</svg>
