<?xml version="1.0" standalone="no"?>
<!DOCTYPE svg PUBLIC "-//W3C//DTD SVG 20010904//EN"
 "http://www.w3.org/TR/2001/REC-SVG-20010904/DTD/svg10.dtd">
<svg version="1.0" xmlns="http://www.w3.org/2000/svg"
 width="256.000000pt" height="256.000000pt" viewBox="0 0 256.000000 256.000000"
 preserveAspectRatio="xMidYMid meet">

<g transform="translate(0.000000,256.000000) scale(0.100000,-0.100000)"
fill="#000000" stroke="none">
<path d="M1517 2513 c-28 -12 -53 -38 -107 -114 -39 -55 -70 -101 -70 -103 0
-2 73 -54 163 -117 89 -62 244 -170 344 -241 l183 -127 65 94 c76 109 89 143
75 196 -12 45 -14 46 -299 244 -285 198 -284 197 -354 168z"/>
<path d="M432 424 c-12 -105 -17 -193 -13 -197 10 -10 361 169 361 183 0 5
-26 34 -57 65 -61 59 -171 121 -233 131 l-36 6 -22 -188z"/>
</g>
</svg>
